<mxfile host="app.diagrams.net" modified="2021-03-08T02:56:46.158Z" agent="5.0 (Windows NT 6.1; Win64; x64) AppleWebKit/537.36 (KHTML, like Gecko) Chrome/88.0.4324.190 Safari/537.36" etag="WciuvJ8k_m58t9IKYCqp" version="14.4.4" type="github">
  <diagram id="Ma_EAl8nTj4ZtMmXfYFo" name="Page-1">
    <mxGraphModel dx="1185" dy="635" grid="1" gridSize="10" guides="1" tooltips="1" connect="1" arrows="1" fold="1" page="1" pageScale="1" pageWidth="827" pageHeight="1169" math="0" shadow="0">
      <root>
        <mxCell id="0" />
        <mxCell id="1" parent="0" />
        <mxCell id="XW51Jf5NNizb6BplRNVg-1" value="client" style="shape=umlLifeline;perimeter=lifelinePerimeter;whiteSpace=wrap;html=1;container=1;collapsible=0;recursiveResize=0;outlineConnect=0;" vertex="1" parent="1">
          <mxGeometry x="30" y="40" width="100" height="640" as="geometry" />
        </mxCell>
        <mxCell id="XW51Jf5NNizb6BplRNVg-15" value="请求" style="html=1;verticalAlign=bottom;endArrow=block;" edge="1" parent="XW51Jf5NNizb6BplRNVg-1">
          <mxGeometry width="80" relative="1" as="geometry">
            <mxPoint x="50" y="271" as="sourcePoint" />
            <mxPoint x="199.50000000000023" y="271.0000000000001" as="targetPoint" />
          </mxGeometry>
        </mxCell>
        <mxCell id="XW51Jf5NNizb6BplRNVg-2" value="ifindstockdict" style="shape=umlLifeline;perimeter=lifelinePerimeter;whiteSpace=wrap;html=1;container=1;collapsible=0;recursiveResize=0;outlineConnect=0;" vertex="1" parent="1">
          <mxGeometry x="180" y="40" width="100" height="640" as="geometry" />
        </mxCell>
        <mxCell id="XW51Jf5NNizb6BplRNVg-3" value="键盘精灵" style="shape=umlLifeline;perimeter=lifelinePerimeter;whiteSpace=wrap;html=1;container=1;collapsible=0;recursiveResize=0;outlineConnect=0;" vertex="1" parent="1">
          <mxGeometry x="330" y="40" width="100" height="640" as="geometry" />
        </mxCell>
        <mxCell id="XW51Jf5NNizb6BplRNVg-17" value="" style="html=1;points=[];perimeter=orthogonalPerimeter;" vertex="1" parent="XW51Jf5NNizb6BplRNVg-3">
          <mxGeometry x="45" y="300" width="10" height="40" as="geometry" />
        </mxCell>
        <mxCell id="XW51Jf5NNizb6BplRNVg-4" value="php" style="shape=umlLifeline;perimeter=lifelinePerimeter;whiteSpace=wrap;html=1;container=1;collapsible=0;recursiveResize=0;outlineConnect=0;" vertex="1" parent="1">
          <mxGeometry x="670" y="40" width="100" height="640" as="geometry" />
        </mxCell>
        <mxCell id="XW51Jf5NNizb6BplRNVg-6" value="" style="html=1;points=[];perimeter=orthogonalPerimeter;" vertex="1" parent="XW51Jf5NNizb6BplRNVg-4">
          <mxGeometry x="45" y="70" width="10" height="50" as="geometry" />
        </mxCell>
        <mxCell id="XW51Jf5NNizb6BplRNVg-9" value="" style="html=1;points=[];perimeter=orthogonalPerimeter;" vertex="1" parent="XW51Jf5NNizb6BplRNVg-4">
          <mxGeometry x="45" y="170" width="10" height="60" as="geometry" />
        </mxCell>
        <mxCell id="XW51Jf5NNizb6BplRNVg-5" value="ifindhq" style="shape=umlLifeline;perimeter=lifelinePerimeter;whiteSpace=wrap;html=1;container=1;collapsible=0;recursiveResize=0;outlineConnect=0;" vertex="1" parent="1">
          <mxGeometry x="490" y="40" width="100" height="640" as="geometry" />
        </mxCell>
        <mxCell id="XW51Jf5NNizb6BplRNVg-8" value="return" style="html=1;verticalAlign=bottom;endArrow=open;dashed=1;endSize=8;exitX=0;exitY=0.95;" edge="1" source="XW51Jf5NNizb6BplRNVg-6" parent="1">
          <mxGeometry relative="1" as="geometry">
            <mxPoint x="539.5" y="157.5" as="targetPoint" />
          </mxGeometry>
        </mxCell>
        <mxCell id="XW51Jf5NNizb6BplRNVg-7" value="获取手机特有字段" style="html=1;verticalAlign=bottom;endArrow=block;entryX=0;entryY=0;" edge="1" target="XW51Jf5NNizb6BplRNVg-6" parent="1">
          <mxGeometry relative="1" as="geometry">
            <mxPoint x="539.5" y="110" as="sourcePoint" />
          </mxGeometry>
        </mxCell>
        <mxCell id="XW51Jf5NNizb6BplRNVg-11" value="return" style="html=1;verticalAlign=bottom;endArrow=open;dashed=1;endSize=8;" edge="1" parent="1">
          <mxGeometry relative="1" as="geometry">
            <mxPoint x="229.5" y="268" as="targetPoint" />
            <mxPoint x="715" y="268" as="sourcePoint" />
          </mxGeometry>
        </mxCell>
        <mxCell id="XW51Jf5NNizb6BplRNVg-10" value="获取手机特有字段" style="html=1;verticalAlign=bottom;endArrow=block;entryX=0;entryY=0;" edge="1" target="XW51Jf5NNizb6BplRNVg-9" parent="1" source="XW51Jf5NNizb6BplRNVg-2">
          <mxGeometry relative="1" as="geometry">
            <mxPoint x="645" y="210" as="sourcePoint" />
          </mxGeometry>
        </mxCell>
        <mxCell id="XW51Jf5NNizb6BplRNVg-19" value="return" style="html=1;verticalAlign=bottom;endArrow=open;dashed=1;endSize=8;exitX=0;exitY=0.95;" edge="1" source="XW51Jf5NNizb6BplRNVg-17" parent="1">
          <mxGeometry relative="1" as="geometry">
            <mxPoint x="229.81034482758628" y="378" as="targetPoint" />
          </mxGeometry>
        </mxCell>
        <mxCell id="XW51Jf5NNizb6BplRNVg-18" value="请求" style="html=1;verticalAlign=bottom;endArrow=block;entryX=0;entryY=0;" edge="1" target="XW51Jf5NNizb6BplRNVg-17" parent="1">
          <mxGeometry relative="1" as="geometry">
            <mxPoint x="229.81034482758628" y="340.0000000000001" as="sourcePoint" />
          </mxGeometry>
        </mxCell>
        <mxCell id="XW51Jf5NNizb6BplRNVg-23" value="return" style="html=1;verticalAlign=bottom;endArrow=open;dashed=1;endSize=8;" edge="1" parent="1" target="XW51Jf5NNizb6BplRNVg-1">
          <mxGeometry relative="1" as="geometry">
            <mxPoint x="230" y="420" as="sourcePoint" />
            <mxPoint x="150" y="420" as="targetPoint" />
          </mxGeometry>
        </mxCell>
      </root>
    </mxGraphModel>
  </diagram>
</mxfile>
